<?xml version="1.0" encoding="UTF-8" standalone="no"?>
<svg
   xmlns:dc="http://purl.org/dc/elements/1.1/"
   xmlns:cc="http://creativecommons.org/ns#"
   xmlns:rdf="http://www.w3.org/1999/02/22-rdf-syntax-ns#"
   xmlns:svg="http://www.w3.org/2000/svg"
   xmlns="http://www.w3.org/2000/svg"
   xmlns:xlink="http://www.w3.org/1999/xlink"
   xmlns:sodipodi="http://sodipodi.sourceforge.net/DTD/sodipodi-0.dtd"
   xmlns:inkscape="http://www.inkscape.org/namespaces/inkscape"
   inkscape:export-ydpi="156"
   inkscape:export-xdpi="156"
   inkscape:export-filename="C:\Users\justi\Pictures\inkscape\DawnitV2.1936.png"
   inkscape:version="1.0rc1 (09960d6f05, 2020-04-09)"
   sodipodi:docname="DawnitV2.1836.svg"
   id="svg8"
   version="1.1"
   viewBox="0 0 380.16339 380.02322"
   height="380.02322mm"
   width="380.16339mm">
  <defs
     id="defs2">
    <linearGradient
       inkscape:collect="always"
       id="linearGradient1077">
      <stop
         style="stop-color:#aa00ff;stop-opacity:1"
         offset="0"
         id="stop1073" />
      <stop
         style="stop-color:#00b8d4;stop-opacity:1"
         offset="1"
         id="stop1075" />
    </linearGradient>
    <inkscape:perspective
       id="perspective1507"
       inkscape:persp3d-origin="105 : 98.999998 : 1"
       inkscape:vp_z="210 : 148.5 : 1"
       inkscape:vp_y="0 : 999.99998 : 0"
       inkscape:vp_x="0 : 148.5 : 1"
       sodipodi:type="inkscape:persp3d" />
    <filter
       height="1.0671999"
       y="-0.033599999"
       width="1.0671999"
       x="-0.033599999"
       id="filter1954"
       style="color-interpolation-filters:sRGB"
       inkscape:collect="always">
      <feGaussianBlur
         id="feGaussianBlur1956"
         stdDeviation="7"
         inkscape:collect="always" />
    </filter>
    <filter
       height="1.0791959"
       y="-0.039597943"
       width="1.0583601"
       x="-0.029180065"
       id="filter1968"
       style="color-interpolation-filters:sRGB"
       inkscape:collect="always">
      <feGaussianBlur
         id="feGaussianBlur1970"
         stdDeviation="6.6120582"
         inkscape:collect="always" />
    </filter>
    <linearGradient
       gradientUnits="userSpaceOnUse"
       y2="159.69598"
       x2="220.703"
       y1="35.383835"
       x1="119.75407"
       id="linearGradient1048"
       xlink:href="#linearGradient1077"
       inkscape:collect="always" />
  </defs>
  <sodipodi:namedview
     inkscape:document-rotation="0"
     inkscape:snap-nodes="false"
     inkscape:snap-midpoints="true"
     inkscape:window-maximized="1"
     inkscape:window-y="-8"
     inkscape:window-x="-8"
     inkscape:window-height="1057"
     inkscape:window-width="1920"
     inkscape:object-paths="true"
     inkscape:object-nodes="true"
     inkscape:snap-smooth-nodes="true"
     inkscape:snap-intersection-paths="true"
     showgrid="false"
     inkscape:current-layer="layer1"
     inkscape:document-units="mm"
     inkscape:cy="653.36144"
     inkscape:cx="601.17137"
     inkscape:zoom="0.45254834"
     inkscape:pageshadow="2"
     inkscape:pageopacity="0.0"
     borderopacity="1.0"
     bordercolor="#666666"
     pagecolor="#ffffff"
     id="base" />
  <metadata
     id="metadata5">
    <rdf:RDF>
      <cc:Work
         rdf:about="">
        <dc:format>image/svg+xml</dc:format>
        <dc:type
           rdf:resource="http://purl.org/dc/dcmitype/StillImage" />
        <dc:title />
      </cc:Work>
    </rdf:RDF>
  </metadata>
  <g
     transform="translate(93.99511,41.428802)"
     id="layer1"
     inkscape:groupmode="layer"
     inkscape:label="Layer 1">
    <g
       id="g1100">
      <ellipse
         style="opacity:1;fill:url(#linearGradient1048);fill-opacity:1;stroke:none;stroke-width:9.71041298;stroke-linecap:round;stroke-linejoin:round;stroke-miterlimit:4;stroke-dasharray:none;stroke-opacity:1"
         id="path2006"
         cx="96.086586"
         cy="148.58281"
         rx="190.0817"
         ry="190.01161" />
      <g
         id="g2027"
         transform="matrix(1.8353772,0,0,1.8347004,-94.180533,-75.64358)">
        <path
           inkscape:connector-curvature="0"
           style="color:#000000;font-style:normal;font-variant:normal;font-weight:normal;font-stretch:normal;font-size:medium;line-height:normal;font-family:sans-serif;font-variant-ligatures:normal;font-variant-position:normal;font-variant-caps:normal;font-variant-numeric:normal;font-variant-alternates:normal;font-feature-settings:normal;text-indent:0;text-align:start;text-decoration:none;text-decoration-line:none;text-decoration-style:solid;text-decoration-color:#000000;letter-spacing:normal;word-spacing:normal;text-transform:none;writing-mode:lr-tb;direction:ltr;text-orientation:mixed;dominant-baseline:auto;baseline-shift:baseline;text-anchor:start;white-space:normal;shape-padding:0;clip-rule:nonzero;display:inline;overflow:visible;visibility:visible;opacity:0.5;isolation:auto;mix-blend-mode:normal;color-interpolation:sRGB;color-interpolation-filters:linearRGB;solid-color:#000000;solid-opacity:1;vector-effect:none;fill:#050000;fill-opacity:1;fill-rule:nonzero;stroke:none;stroke-width:24.99999809;stroke-linecap:round;stroke-linejoin:round;stroke-miterlimit:4;stroke-dasharray:none;stroke-dashoffset:0;stroke-opacity:1;filter:url(#filter1968);color-rendering:auto;image-rendering:auto;shape-rendering:auto;text-rendering:auto;enable-background:accumulate"
           d="m 66.574219,118.50977 c -1.470066,0.01 -2.939781,0.0352 -4.408203,0.0703 h -0.002 c -117.988064,0.6652 -227.766166,85.43253 -257.289066,199.9082 -6.7655,23.10317 -9.98945,46.86531 -10.00586,70.54297 a 12.50125,12.50125 0 0 0 0,0.008 c 0,13.73537 2.75694,30.85309 8.23633,46 2.73969,7.57346 6.10001,14.64032 10.98047,20.63477 4.88046,5.99444 12.31714,11.52148 21.66601,11.52148 5.73451,0 11.3091,-2.52375 15.02539,-5.73242 3.7163,-3.20867 6.08596,-6.84515 8.11524,-10.49609 4.05855,-7.30194 6.83364,-15.16586 10.18359,-22.41016 3.34995,-7.24426 7.13936,-13.61007 11.55274,-17.7168 4.41337,-4.10668 9.05328,-6.53427 17.62304,-6.57422 7.033669,-0.034 10.249628,1.98064 14.16407,6.34766 3.914437,4.36702 7.53861,11.59895 10.892578,19.72656 3.353971,8.12758 6.371167,16.96798 11.289062,25.06055 4.917895,8.09257 14.03579,16.62305 26.039063,16.62305 9.917956,0 18.078164,-6.01287 23.132812,-12.66797 5.054649,-6.65511 8.2661208,-14.43653 10.7832034,-22.65039 4.97198154,-16.22472 6.9096997,-34.14952 6.9570312,-47.16016 1.3457281,-30.56179 24.9929034,-60.78754 56.4082034,-63.78515 a 12.50125,12.50125 0 0 0 0.470703,-0.0547 c 3.193395,-0.42752 6.354021,-0.63927 9.439453,-0.60352 a 12.50125,12.50125 0 0 0 0.494141,-0.006 c 34.33045,-0.96172 63.02401,31.58949 64.39843,64.3418 0.0307,20.01128 2.36879,38.03417 9.71485,52.69336 7.39505,14.75694 22.20917,25.75391 40.2539,25.75391 10.05193,0 18.82736,-4.26899 24.94922,-9.60157 6.12186,-5.33261 10.22516,-11.47428 13.8086,-16.83203 3.58343,-5.35774 6.70133,-9.97875 9.18164,-12.47656 1.53271,-1.54356 2.43197,-2.12782 3.29687,-2.43555 0.74512,1.13772 1.84514,3.12878 2.98828,6.15625 2.78007,7.36264 5.47311,18.8481 8.58399,30.73438 3.11087,11.88627 6.58219,24.25019 12.57617,34.92187 5.99398,10.67165 16.67539,20.9043 30.99805,20.9043 12.83913,0 21.6869,-9.38158 27.39648,-19.16602 5.70958,-9.78447 9.69144,-21.73764 12.90039,-34.7207 6.41789,-25.96615 9.32813,-55.78918 9.32813,-76.33008 -2e-5,-34.9812 -6.58294,-69.99957 -20.2168,-102.54883 a 32.192496,34.212695 44.882549 0 1 -1.30274,1.4375 32.192496,34.212695 44.882549 0 1 -46.95312,1.52539 32.192496,34.212695 44.882549 0 1 -8.27734,-29.31835 51.411897,54.638188 44.882549 0 1 -58.28711,-9.19141 51.411897,54.638188 44.882549 0 1 -9.73633,-57.58984 32.192496,34.212695 44.882549 0 1 -28.55274,-8.32618 32.192496,34.212695 44.882549 0 1 1.33203,-46.95898 32.192496,34.212695 44.882549 0 1 0.35352,-0.33203 C 135.29524,125.0668 101.14498,118.2828 66.576172,118.50977 a 12.50125,12.50125 0 0 0 -0.002,0 z"
           transform="matrix(0.26458333,0,0,0.26458333,90.630441,24.946429)"
           id="path1958" />
        <path
           inkscape:connector-curvature="0"
           style="opacity:0.5;fill:#000000;fill-opacity:0.98828125;stroke-width:0.7374621;filter:url(#filter1954)"
           d="m 67,140.51953 a 250.00001,250.00001 0 0 0 -250,250 250.00001,250.00001 0 0 0 250,250 250.00001,250.00001 0 0 0 250,-250 250.00001,250.00001 0 0 0 -19.05273,-95.48633 32.192496,32.192496 0 0 1 -23.99024,-9.32812 32.192496,32.192496 0 0 1 -8.89844,-28.69336 51.411897,51.411897 0 0 1 -56.8457,-10.64063 A 51.411897,51.411897 0 0 1 197.0625,190.20117 32.192496,32.192496 0 0 1 169.10352,181.2793 32.192496,32.192496 0 0 1 159.65234,158.43164 250.00001,250.00001 0 0 0 67,140.51953 Z m 0,162.5 a 87.499997,87.499997 0 0 1 87.5,87.5 87.499997,87.499997 0 0 1 -87.5,87.5 87.499997,87.499997 0 0 1 -87.5,-87.5 87.499997,87.499997 0 0 1 87.5,-87.5 z"
           transform="matrix(0.26458333,0,0,0.26458333,93.303137,26.282776)"
           id="path1068" />
        <path
           inkscape:connector-curvature="0"
           id="path815"
           d="m 105.41756,62.125554 a 66.145835,66.145835 0 0 0 -66.145833,66.145836 66.145835,66.145835 0 0 0 66.145833,66.14583 66.145835,66.145835 0 0 0 66.14583,-66.14583 66.145835,66.145835 0 0 0 -5.04103,-25.26409 8.5175978,8.5175978 0 0 1 -6.34742,-2.46807 8.5175978,8.5175978 0 0 1 -2.35438,-7.591785 13.602731,13.602731 0 0 1 -15.04042,-2.815333 13.602731,13.602731 0 0 1 -2.95021,-14.861625 8.5175978,8.5175978 0 0 1 -7.39748,-2.360578 8.5175978,8.5175978 0 0 1 -2.50063,-6.04511 66.145835,66.145835 0 0 0 -24.51426,-4.739245 z m 0,42.994786 a 23.151041,23.151041 0 0 1 23.15104,23.15105 23.151041,23.151041 0 0 1 -23.15104,23.15104 23.151041,23.151041 0 0 1 -23.151042,-23.15104 23.151041,23.151041 0 0 1 23.151042,-23.15105 z"
           style="opacity:1;fill:#d1b59d;fill-opacity:1;stroke-width:0.19512019" />
        <path
           inkscape:connector-curvature="0"
           id="path1059"
           d="m 105.3049,56.302138 c -0.38895,0.0026 -0.77781,0.0093 -1.16633,0.0186 h -5.2e-4 c -31.217674,0.176001 -60.263129,22.604023 -68.074396,52.892382 -1.790039,6.11271 -2.643042,12.39978 -2.647384,18.66449 a 3.3076224,3.3076224 0 0 0 0,0.002 c 0,3.63415 0.729441,8.16321 2.179196,12.17083 0.724876,2.00381 1.613961,3.87359 2.905249,5.45962 1.291288,1.58603 3.25891,3.04839 5.732465,3.04839 1.517256,0 2.9922,-0.66774 3.975468,-1.5167 0.983271,-0.84896 1.610243,-1.81112 2.147157,-2.77709 1.073825,-1.93198 1.808067,-4.01264 2.694408,-5.92936 0.886341,-1.91671 1.888956,-3.601 3.056663,-4.68757 1.167704,-1.08656 2.395347,-1.72886 4.662762,-1.73943 1.860991,-0.009 2.71188,0.52405 3.747576,1.67949 1.035695,1.15544 1.994591,3.06889 2.881995,5.21932 0.887404,2.15042 1.685704,4.48944 2.986897,6.6306 1.301193,2.14116 3.713636,4.39818 6.889502,4.39818 2.624126,0 4.783181,-1.5909 6.120557,-3.35173 1.337376,-1.76083 2.187077,-3.81967 2.853056,-5.99292 1.315503,-4.29279 1.828191,-9.03539 1.840714,-12.47779 0.356057,-8.08614 6.612706,-16.08337 14.924675,-16.87649 a 3.3076224,3.3076224 0 0 0 0.12454,-0.0145 c 0.84491,-0.11311 1.68116,-0.16914 2.49752,-0.15968 a 3.3076224,3.3076224 0 0 0 0.13074,-0.002 c 9.08326,-0.25445 16.6751,8.35805 17.03875,17.02377 0.008,5.29465 0.62674,10.06321 2.57039,13.94178 1.95661,3.90444 5.87617,6.81406 10.65051,6.81406 2.65957,0 4.9814,-1.1295 6.60115,-2.54042 1.61974,-1.41092 2.7054,-3.0359 3.65352,-4.45347 0.94812,-1.41757 1.77306,-2.64021 2.42931,-3.30109 0.40553,-0.4084 0.64346,-0.56299 0.8723,-0.64441 0.19714,0.30103 0.48819,0.82783 0.79065,1.62884 0.73556,1.94804 1.44809,4.9869 2.27118,8.13181 0.82308,3.14491 1.74154,6.4162 3.32744,9.23974 1.58591,2.82354 4.41203,5.53093 8.20157,5.53093 3.39702,0 5.73799,-2.48221 7.24865,-5.07101 1.51066,-2.5888 2.5642,-5.75141 3.41323,-9.18651 1.69807,-6.87022 2.46807,-14.76089 2.46807,-20.19567 -10e-6,-9.25544 -1.74174,-18.52072 -5.34903,-27.13271 a 8.5175978,9.0521088 44.882549 0 1 -0.34468,0.38034 8.5175978,9.0521088 44.882549 0 1 -12.42302,0.40359 8.5175978,9.0521088 44.882549 0 1 -2.19004,-7.757151 13.602731,14.456354 44.882549 0 1 -15.4218,-2.431894 13.602731,14.456354 44.882549 0 1 -2.57607,-15.237311 8.5175978,9.0521088 44.882549 0 1 -7.55458,-2.202969 8.5175978,9.0521088 44.882549 0 1 0.35243,-12.424563 8.5175978,9.0521088 44.882549 0 1 0.0935,-0.08785 c -8.40354,-3.352146 -17.43913,-5.147079 -26.58546,-5.087027 a 3.3076224,3.3076224 0 0 0 -5.2e-4,0 z"
           style="color:#000000;font-style:normal;font-variant:normal;font-weight:normal;font-stretch:normal;font-size:medium;line-height:normal;font-family:sans-serif;font-variant-ligatures:normal;font-variant-position:normal;font-variant-caps:normal;font-variant-numeric:normal;font-variant-alternates:normal;font-feature-settings:normal;text-indent:0;text-align:start;text-decoration:none;text-decoration-line:none;text-decoration-style:solid;text-decoration-color:#000000;letter-spacing:normal;word-spacing:normal;text-transform:none;writing-mode:lr-tb;direction:ltr;text-orientation:mixed;dominant-baseline:auto;baseline-shift:baseline;text-anchor:start;white-space:normal;shape-padding:0;clip-rule:nonzero;display:inline;overflow:visible;visibility:visible;opacity:1;isolation:auto;mix-blend-mode:normal;color-interpolation:sRGB;color-interpolation-filters:linearRGB;solid-color:#000000;solid-opacity:1;vector-effect:none;fill:#6b009d;fill-opacity:1;fill-rule:nonzero;stroke:none;stroke-width:6.61458254;stroke-linecap:round;stroke-linejoin:round;stroke-miterlimit:4;stroke-dasharray:none;stroke-dashoffset:0;stroke-opacity:1;color-rendering:auto;image-rendering:auto;shape-rendering:auto;text-rendering:auto;enable-background:accumulate" />
        <path
           inkscape:connector-curvature="0"
           id="path822"
           d="m 105.32713,59.60943 c -0.38981,0.0026 -0.77987,0.0089 -1.16996,0.0186 -29.64373,0.166894 -57.509913,21.697232 -64.904046,50.45325 -1.709751,5.816 -2.525414,11.81056 -2.529562,17.7984 0,6.29364 2.78207,17.37155 7.509618,17.37155 5.57376,0 4.426014,-16.59379 16.521472,-16.65015 11.034682,-0.0514 9.330686,17.92759 16.520956,17.92759 5.483872,0 7.509619,-12.46732 7.509619,-18.64899 0.419744,-9.66222 7.739493,-19.064 17.915183,-20.03495 0.98532,-0.13191 1.98017,-0.20066 2.9745,-0.18914 11.13525,-0.31194 20.01759,9.7662 20.43803,20.22409 0,10.103 2.61674,17.55397 9.91412,17.55397 7.29738,0 8.04208,-11.05735 14.02757,-11.03034 5.98549,0.027 4.74796,24.62227 14.11955,24.62227 6.7731,0 9.82266,-20.93487 9.82266,-31.1459 -2e-5,-8.45848 -1.52354,-16.90657 -4.65657,-24.78918 a 8.5175978,9.5865139 44.882549 0 1 -11.1404,-0.56845 8.5175978,9.5865139 44.882549 0 1 -2.0252,-7.921996 13.602731,15.309807 44.882549 0 1 -15.80369,-2.048455 13.602731,15.309807 44.882549 0 1 -2.20193,-15.612999 8.5175978,9.5865139 44.882549 0 1 -7.71168,-2.045353 8.5175978,9.5865139 44.882549 0 1 -0.81958,-10.814844 C 121.90997,61.130101 113.65653,59.55474 105.32713,59.60943 Z"
           style="opacity:1;fill:#ad01ff;fill-opacity:1;stroke-width:0.19512019" />
        <path
           inkscape:connector-curvature="0"
           id="path1062"
           d="m 60.769638,131.90837 c -2.267415,0.0106 -3.495058,0.65287 -4.662762,1.73943 -1.167707,1.08657 -2.170322,2.77086 -3.056663,4.68757 -0.133532,0.28877 -0.262879,0.58233 -0.391189,0.87747 0.367525,1.54478 0.816518,3.08199 1.360123,4.60592 8.007618,26.5943 38.407157,44.84329 65.514863,36.18797 14.84255,-4.03782 27.40041,-14.9288 34.22375,-28.52384 -0.41293,-1.30189 -0.77256,-2.62146 -1.11259,-3.92069 -0.82309,-3.14491 -1.53562,-6.18377 -2.27118,-8.13181 -0.30246,-0.80101 -0.59351,-1.32781 -0.79065,-1.62884 -0.22884,0.0814 -0.46677,0.23601 -0.8723,0.64441 -0.65625,0.66088 -1.48119,1.88352 -2.42931,3.30109 -0.94812,1.41757 -2.03378,3.04255 -3.65352,4.45347 -1.61975,1.41092 -3.94158,2.54042 -6.60115,2.54042 -0.36173,0 -0.71775,-0.0186 -1.06918,-0.0512 -12.41006,18.36006 -43.634398,20.8508 -57.228553,2.36006 -0.343872,-0.40417 -0.671466,-0.81868 -0.99167,-1.23765 -2.910227,-0.23658 -5.124947,-2.35599 -6.351551,-4.37441 -1.301193,-2.14116 -2.099493,-4.48018 -2.986897,-6.6306 -0.887404,-2.15043 -1.8463,-4.06388 -2.881995,-5.21932 -1.035696,-1.15544 -1.886585,-1.68848 -3.747576,-1.67949 z"
           style="opacity:0.2;fill:#ffffff;fill-opacity:1;stroke-width:0.19512019" />
        <path
           inkscape:connector-curvature="0"
           id="path1102"
           d="m 105.48732,74.691196 c -0.38344,7.3e-4 -0.76682,0.0056 -1.15031,0.01292 -29.079793,-0.572254 -53.888582,27.343254 -52.886698,55.589374 2.898341,-3.15162 6.636327,-5.0869 11.509891,-4.0597 3.203171,0.71105 5.380459,2.64414 7.066235,5.0617 -0.987702,-15.01137 6.86525,-30.81778 21.683431,-35.94664 4.774962,-2.004299 9.968391,-2.874016 15.132931,-2.849439 23.4756,-0.125007 41.10515,27.788379 32.07297,48.939649 0.17004,-0.1114 0.3417,-0.22816 0.51677,-0.35605 3.11033,-4.10256 6.62342,-11.15 12.95734,-8.53695 2.88674,2.54758 4.0718,6.04881 4.98006,9.70742 2.08453,-7.31017 2.53909,-15.07337 0.92036,-22.76812 -1.32172,-8.14508 -4.68208,-15.85622 -9.50329,-22.512321 a 13.602731,15.966309 44.882549 0 1 -9.34259,-3.491259 13.602731,15.966309 44.882549 0 1 -3.53002,-9.298657 c -8.47609,-6.035852 -18.6272,-9.62208 -29.27676,-9.479007 -0.3835,-0.01029 -0.76687,-0.01365 -1.15032,-0.01292 z"
           style="opacity:0.2;fill:#ffffff;fill-opacity:1;stroke-width:0.19512019" />
        <rect
           transform="rotate(-52.125014)"
           ry="1.1590822"
           y="199.80132"
           x="-6.0979614"
           height="2.3181643"
           width="11.590822"
           id="rect955"
           style="opacity:1;fill:#f93a95;fill-opacity:1;stroke:none;stroke-width:1.35234785;stroke-miterlimit:4;stroke-dasharray:none" />
        <rect
           transform="rotate(106.60633)"
           ry="1.1590822"
           y="-81.058922"
           x="98.133148"
           height="2.3181643"
           width="11.590822"
           id="rect955-5"
           style="opacity:1;fill:#3b43af;fill-opacity:1;stroke:none;stroke-width:1.35234785;stroke-miterlimit:4;stroke-dasharray:none" />
        <rect
           transform="rotate(28.650019)"
           ry="1.1590822"
           y="17.380136"
           x="118.38888"
           height="2.3181643"
           width="11.590822"
           id="rect955-5-6"
           style="opacity:1;fill:#8056be;fill-opacity:1;stroke:none;stroke-width:1.35234785;stroke-miterlimit:4;stroke-dasharray:none" />
        <rect
           transform="rotate(5.5943688)"
           ry="1.1590822"
           y="80.960793"
           x="69.008896"
           height="2.3181643"
           width="11.590822"
           id="rect955-5-64"
           style="opacity:1;fill:#3b43af;fill-opacity:1;stroke:none;stroke-width:1.35234785;stroke-miterlimit:4;stroke-dasharray:none" />
        <rect
           transform="rotate(13.224255)"
           ry="1.1590822"
           y="64.236549"
           x="143.03029"
           height="2.3181643"
           width="11.590822"
           id="rect955-5-0"
           style="opacity:1;fill:#3b43af;fill-opacity:1;stroke:none;stroke-width:1.35234785;stroke-miterlimit:4;stroke-dasharray:none" />
        <rect
           transform="rotate(-120.65122)"
           ry="1.1590822"
           y="52.190811"
           x="-175.06345"
           height="2.3181643"
           width="11.590822"
           id="rect955-5-04"
           style="opacity:1;fill:#3b43af;fill-opacity:1;stroke:none;stroke-width:1.35234785;stroke-miterlimit:4;stroke-dasharray:none" />
        <rect
           transform="rotate(15.65738)"
           ry="1.1590822"
           y="62.996101"
           x="166.9583"
           height="2.3181643"
           width="11.590822"
           id="rect955-5-6-6"
           style="opacity:1;fill:#8056be;fill-opacity:1;stroke:none;stroke-width:1.35234785;stroke-miterlimit:4;stroke-dasharray:none" />
        <rect
           transform="rotate(-16.299926)"
           ry="1.1590822"
           y="118.47543"
           x="47.103142"
           height="2.3181643"
           width="11.590822"
           id="rect955-5-6-2"
           style="opacity:1;fill:#8056be;fill-opacity:1;stroke:none;stroke-width:1.35234785;stroke-miterlimit:4;stroke-dasharray:none" />
        <rect
           transform="rotate(-52.125014)"
           ry="1.1590822"
           y="144.10321"
           x="9.4764595"
           height="2.3181643"
           width="11.590822"
           id="rect955-5-6-67"
           style="opacity:1;fill:#8056be;fill-opacity:1;stroke:none;stroke-width:1.35234785;stroke-miterlimit:4;stroke-dasharray:none" />
        <rect
           transform="rotate(-52.125014)"
           ry="1.1590822"
           y="112.82108"
           x="-19.08651"
           height="2.3181643"
           width="11.590822"
           id="rect955-56"
           style="opacity:1;fill:#f93a95;fill-opacity:1;stroke:none;stroke-width:1.35234785;stroke-miterlimit:4;stroke-dasharray:none" />
        <rect
           transform="rotate(-52.125014)"
           ry="1.1590822"
           y="139.97758"
           x="-17.43391"
           height="2.3181643"
           width="11.590822"
           id="rect955-9"
           style="opacity:1;fill:#f93a95;fill-opacity:1;stroke:none;stroke-width:1.35234785;stroke-miterlimit:4;stroke-dasharray:none" />
        <rect
           transform="rotate(34.130124)"
           ry="1.1590822"
           y="54.941666"
           x="107.49339"
           height="2.3181643"
           width="11.590822"
           id="rect955-8"
           style="opacity:1;fill:#f93a95;fill-opacity:1;stroke:none;stroke-width:1.35234785;stroke-miterlimit:4;stroke-dasharray:none" />
      </g>
    </g>
  </g>
</svg>
