<svg xmlns="http://www.w3.org/2000/svg" width="282.964" height="92.237" viewBox="0 0 282.964 92.237">
  <g id="google" transform="translate(-818.375 -380)">
    <path id="red" d="M127.441,51.543c0,13.651-10.157,24.02-23.53,24.02S79.4,65.194,79.4,51.543c0-13.747,11.137-24.02,24.51-24.02S127.441,37.8,127.441,51.543Zm-9.8,0c0-8.53-6.4-14.412-13.726-14.412S90.185,43.013,90.185,51.543c0,8.445,6.4,14.412,13.726,14.412S117.636,59.977,117.636,51.543Z" transform="translate(809.599 375.536)" fill="#ea4335"/>
    <path id="yellow" d="M180.441,51.543a24.02,24.02,0,1,1-24.02-24.02A23.877,23.877,0,0,1,180.441,51.543Zm-10.569,0c0-8.53-6.268-14.412-13.451-14.412s-13.451,5.882-13.451,14.412c0,8.445,6.268,14.412,13.451,14.412S169.872,59.977,169.872,51.543Z" transform="translate(807.522 375.536)" fill="#fbbc05"/>
    <path id="blue" d="M231.558,29.445V71.72c0,17.51-9.891,24.981-22.1,24.981-11.492,0-18.529-8.126-21.138-14.412l8.647-3.843c1.614,3.859,6.119,8.647,12.49,8.647,7.814,0,12.49-4.376,12.49-13.451V69.8h-.961a16.347,16.347,0,0,1-12.49,5.765c-11.855,0-22.1-10.733-22.1-24.02,0-13.384,10.244-24.02,22.1-24.02a16.672,16.672,0,0,1,12.49,5.765h.961V29.445Zm-9.608,22.1c0-8.349-5.4-14.412-12.49-14.412-7.184,0-12.49,6.063-12.49,14.412,0,8.263,5.307,14.412,12.49,14.412C216.547,65.955,221.95,59.806,221.95,51.543Z" transform="translate(805.406 375.536)" fill="#4285f4"/>
    <path id="green" d="M249.969,3.523V72.7H239.4V3.523Z" transform="translate(803.328 376.477)" fill="#34a853"/>
    <path id="red-2" data-name="red" d="M289.95,59.23l8.647,5.765a24.519,24.519,0,0,1-20.177,10.569,23.871,23.871,0,0,1-24.02-24.02c0-14.1,10.841-24.02,23.059-24.02,12.3,0,18.21,10.081,20.177,15.373l.961,2.882-31.707,12.49c2.427,4.757,6.238,7.686,11.53,7.686S287.257,63.185,289.95,59.23Zm-24.981-8.647,21.138-8.647c-1.165-2.961-4.521-4.8-8.647-4.8A12.728,12.728,0,0,0,264.969,50.582Z" transform="translate(802.74 375.536)" fill="#ea4335"/>
    <path id="green-2" data-name="green" d="M59.818,352.269c9.331,0,17.2-3.064,22.934-8.352L71.6,335.271a20.984,20.984,0,0,1-31.2-10.971l-6.4,4.955L28.9,333.212A34.6,34.6,0,0,0,59.818,352.269Z" transform="translate(793.155 101.501)" fill="#34a853"/>
    <path id="yellow-2" data-name="yellow" d="M15.123,172.159a20.724,20.724,0,0,1,0-13.247L9.176,154.29,3.63,150a34.628,34.628,0,0,0,0,31.071Z" transform="translate(818.425 253.642)" fill="#fbbc04"/>
    <path id="red-3" data-name="red" d="M59.818,13.676A18.8,18.8,0,0,1,73.09,18.863h0l9.878-9.878a33.253,33.253,0,0,0-23.15-9A34.592,34.592,0,0,0,28.9,19.053l11.493,8.912A20.7,20.7,0,0,1,59.818,13.676Z" transform="translate(793.155 384.588)" fill="#ea4335"/>
    <path id="blue-2" data-name="blue" d="M305.332,230.13a40.692,40.692,0,0,0-.6-7.03H272.1v13.323h18.688a16.015,16.015,0,0,1-6.916,10.514l5.641,4.375,5.508,4.27C301.569,249.556,305.332,240.657,305.332,230.13Z" transform="translate(580.873 189.835)" fill="#4285f4"/>
  </g>
</svg>
